<svg width="24" height="24" viewBox="0 0 24 24" fill="none" xmlns="http://www.w3.org/2000/svg">
<path fill-rule="evenodd" clip-rule="evenodd" d="M18.2441 21.6119C16.3154 22.9044 14.0479 23.5942 11.7282 23.5942C8.61771 23.5942 5.63459 22.355 3.43512 20.1492C1.23565 17.9433 0 14.9515 0 11.832C0 9.50562 0.687849 7.23151 1.97656 5.29721C3.26528 3.36292 5.09698 1.85532 7.24003 0.965057C9.38309 0.0747985 11.7412 -0.158134 14.0163 0.295716C16.2914 0.749566 18.3811 1.86981 20.0213 3.5148C21.6616 5.15978 22.7786 7.25562 23.2311 9.53727C23.6836 11.8189 23.4514 14.1839 22.5637 16.3332C21.676 18.4825 20.1728 20.3195 18.2441 21.6119ZM13.7545 8.34319H16.7234H16.7268C16.7528 8.34274 16.7788 8.34755 16.803 8.35736C16.8271 8.36716 16.8491 8.38175 16.8676 8.40025C16.886 8.41876 16.9006 8.4408 16.9103 8.46506C16.9201 8.48932 16.9249 8.51531 16.9245 8.54147V15.6694H15.5104V9.05565C15.5099 9.0076 15.4957 8.96069 15.4695 8.92045C15.4433 8.88022 15.4062 8.84833 15.3625 8.82855C15.3188 8.80877 15.2704 8.80193 15.223 8.80882C15.1756 8.81571 15.1311 8.83606 15.0949 8.86745L12.4309 11.2199V15.666H11.057V10.8704C11.0606 10.6679 11.0238 10.4668 10.9489 10.2788C10.874 10.0907 10.7625 9.91957 10.6208 9.7753C10.4791 9.63103 10.3102 9.51655 10.1239 9.43857C9.93754 9.36058 9.73758 9.32066 9.53568 9.32114H9.48541C9.21264 9.31834 8.94412 9.38914 8.708 9.52614C8.47372 9.66214 8.27997 9.85848 8.14682 10.0948C8.01366 10.3312 7.94595 10.599 7.95069 10.8704V15.666H6.58351V10.8704C6.57495 10.3909 6.69039 9.91734 6.91861 9.49589C7.15429 9.07736 7.50266 8.7338 7.92388 8.5045C8.40485 8.2476 8.94404 8.12023 9.48876 8.13483H9.51557C10.0592 8.1205 10.5972 8.24788 11.0771 8.5045C11.4988 8.73321 11.8473 9.07691 12.0824 9.49589C12.1106 9.54394 12.134 9.59437 12.1567 9.64317C12.161 9.65239 12.1652 9.66156 12.1695 9.67065L13.6205 8.3936C13.6575 8.36088 13.7052 8.34293 13.7545 8.34319Z" fill="#5F58FF"/>
</svg>
